<svg xmlns="http://www.w3.org/2000/svg" width="50" height="41.667" viewBox="0 0 50 41.667">
  <path id="iconmonstr-reddit-1" d="M50,22.373a5.527,5.527,0,0,0-9.369-3.956,28.533,28.533,0,0,0-14.523-4.262L29.2,4.427l8.367,1.96-.013.121a4.545,4.545,0,1,0,.319-1.635L28.852,2.758a.771.771,0,0,0-.917.519L24.49,14.125A28.866,28.866,0,0,0,9.281,18.344,5.5,5.5,0,1,0,2.744,27.1a9.826,9.826,0,0,0-.179,1.785c0,8.148,10.017,14.777,22.331,14.777S47.229,37.037,47.229,28.89a9.891,9.891,0,0,0-.156-1.687A5.486,5.486,0,0,0,50,22.373ZM14.117,26.156a3.295,3.295,0,1,1,3.3,3.279A3.293,3.293,0,0,1,14.117,26.156Zm18.877,9.727c-1.66,1.652-4.267,2.456-7.967,2.456L25,38.333l-.027.006c-3.7,0-6.308-.8-7.967-2.456a.773.773,0,0,1,1.1-1.09c1.354,1.348,3.6,2,6.871,2L25,36.8l.027-.006c3.269,0,5.517-.656,6.871-2a.773.773,0,1,1,1.1,1.092ZM32.6,29.435a3.28,3.28,0,1,1,3.294-3.279A3.29,3.29,0,0,1,32.6,29.435Z" transform="translate(0 -2)"/>
</svg>
